<svg width="303" height="125" viewBox="0 0 303 125" fill="none" xmlns="http://www.w3.org/2000/svg">
<path d="M149.49 14.5417C147.706 12.5802 144.96 10.957 142.695 9.80717C141.734 9.06318 141.048 7.91337 140.979 6.69593C140.842 5.00503 141.666 2.57016 141.666 2.57016L134.39 5.61376C134.116 5.47849 133.91 5.27558 133.635 5.1403C131.714 3.65232 130.066 1.96143 128.694 0C127.321 1.96143 125.605 3.65232 123.752 5.1403C123.546 5.34321 123.271 5.47849 122.997 5.61376L115.721 2.57016C115.721 2.57016 116.545 5.07267 116.408 6.69593C116.339 7.91337 115.721 9.06318 114.692 9.80717C112.427 10.957 109.75 12.5802 107.966 14.5417C103.916 18.8703 102.063 26.8514 104.602 32.2622C104.74 32.4651 105.563 33.8855 105.563 33.8855C107.348 31.1124 108.789 30.9095 108.789 30.9095C106.73 34.9676 106.318 42.3399 110.505 47.2773C113.045 50.2533 116.202 52.6205 119.29 54.9878C122.722 57.6932 125.605 60.6692 128.762 63.7128C128.762 63.7128 134.734 57.6256 138.234 54.9878C141.323 52.6205 144.48 50.2533 147.019 47.2773C151.206 42.3399 150.794 34.9676 148.735 30.9095C148.735 30.9095 150.245 31.1124 151.961 33.8855C151.961 33.8855 152.785 32.4651 152.922 32.2622C155.393 26.8514 153.54 18.8703 149.49 14.5417ZM128.694 51.2678C126.772 50.862 124.919 50.118 123.271 49.1035L128.694 46.6686L134.116 49.1035C132.469 50.118 130.615 50.862 128.694 51.2678ZM143.176 28.8128C144.343 30.3008 144.96 32.0593 144.96 33.8855C144.96 36.9291 142.833 40.649 142.833 40.649L140.499 38.2818C140.499 38.2818 141.46 42.2047 137.685 46.3304C137.342 46.6686 137.067 46.9391 136.724 47.2773L130.066 44.3014V42.0017C131.714 40.7167 134.39 38.5523 134.39 37.8083L134.253 30.1655C134.322 30.1655 134.39 30.1655 134.459 30.1655C137.685 30.2331 140.911 26.5808 140.911 26.5808C141.048 26.4455 141.117 26.2426 141.117 26.0397C141.117 25.6339 140.705 25.1605 140.293 25.2957L133.155 27.1895C132.88 27.1895 132.675 27.3248 132.537 27.5954C132.4 27.7983 132.331 28.0012 132.4 28.2717L132.743 37.1996C131.37 36.9291 130.135 37.6054 128.694 37.6054C127.321 37.6054 126.017 36.9291 124.644 37.1996L124.987 28.3393C125.056 28.1364 124.987 27.8659 124.85 27.663C124.713 27.4601 124.507 27.3248 124.232 27.2572L117.094 25.3634C116.682 25.2957 116.27 25.7015 116.27 26.1074C116.27 26.3103 116.339 26.5132 116.476 26.6484C116.476 26.6484 119.702 30.3008 122.928 30.2331C122.997 30.2331 123.065 30.2331 123.134 30.2331L122.997 37.876C122.997 38.62 125.468 40.7167 127.184 42.0017V44.4366L120.663 47.345C120.32 47.0744 120.045 46.7362 119.702 46.3981C115.927 42.2723 116.888 38.3494 116.888 38.3494L114.555 40.7167C114.555 40.7167 112.427 36.9967 112.427 33.9531C112.427 32.1269 113.045 30.3008 114.211 28.8804C111.74 27.8659 110.299 25.4986 110.848 23.1314C111.466 20.4936 114.417 18.938 117.506 19.6143C118.81 19.8849 119.977 20.6289 120.869 21.6434C120.869 21.6434 120.732 18.5998 115.927 16.2326C122.105 14.9475 124.987 15.8944 126.703 16.9765L128.694 13.6624L130.684 16.9765C132.4 15.8267 135.283 14.9475 141.46 16.2326C136.724 18.5998 136.518 21.6434 136.518 21.6434C137.41 20.6289 138.577 19.9525 139.881 19.6143C142.901 18.938 145.921 20.4936 146.539 23.1314C147.088 25.431 145.647 27.7982 143.176 28.8128Z" fill="#D31216"/>
<path d="M104.666 87.3106C105.172 87.3106 105.34 87.4796 105.34 87.9867V90.0712C105.34 90.5782 105.172 90.7472 104.666 90.7472H94.3787C93.8727 90.7472 93.7041 90.5782 93.7041 90.0712V73.8458C93.7041 73.3388 93.8727 73.1698 94.3787 73.1698H97.1331C97.639 73.1698 97.8077 73.3388 97.8077 73.8458V87.2543H104.666V87.3106Z" fill="#D31216"/>
<path d="M110.964 73.899C110.964 73.3919 111.133 73.2229 111.638 73.2229H114.393C114.899 73.2229 115.067 73.3919 115.067 73.899V90.1243C115.067 90.6314 114.899 90.8004 114.393 90.8004H111.638C111.133 90.8004 110.964 90.6314 110.964 90.1243V73.899Z" fill="#D31216"/>
<path d="M129.518 87.5326C132.722 87.5326 134.409 84.7157 134.409 81.9551C134.409 79.1946 132.722 76.3777 129.518 76.3777C126.426 76.3777 124.628 79.1382 124.628 81.9551C124.628 84.7157 126.37 87.5326 129.518 87.5326ZM129.518 72.8847C134.521 72.8284 138.625 76.8847 138.681 81.8988C138.737 86.9129 134.69 91.0256 129.687 91.0819C124.684 91.1382 120.58 87.0819 120.524 82.0678V82.0115C120.468 76.9974 124.515 72.9411 129.518 72.8847Z" fill="#D31216"/>
<path d="M147.503 90.0672C147.503 90.5743 147.334 90.7433 146.828 90.7433H144.074C143.568 90.7433 143.399 90.5743 143.399 90.0672V73.1095C143.399 72.9405 143.456 72.8841 143.624 72.8841H143.849C144.018 72.8841 144.186 72.9968 144.355 73.1095L154.979 82.7433V73.8982C154.979 73.3912 155.148 73.2222 155.654 73.2222H158.408C158.914 73.2222 159.083 73.3912 159.083 73.8982V90.856C159.083 91.025 159.027 91.0813 158.858 91.0813H158.633C158.465 91.0813 158.296 90.9686 158.183 90.856L147.559 81.1095V90.0672H147.503Z" fill="#D31216"/>
<path d="M81.4697 103.638C81.4697 105.26 83.3965 105.676 85.7088 105.954C88.4064 106.279 90.6704 107.113 90.6704 109.753C90.6704 111.885 88.9363 113.877 85.3716 113.877C83.1557 113.877 81.3251 113.413 79.7836 112.348C79.591 112.209 79.591 112.116 79.6873 111.885L80.0727 111.236C80.2172 111.004 80.3135 110.958 80.5544 111.097C81.9032 111.977 83.541 112.441 85.1789 112.441C87.1057 112.441 89.0808 111.838 89.0808 109.753C89.0808 108.086 87.5393 107.576 84.7935 107.205C82.5294 106.927 79.88 106.232 79.88 103.592C79.88 102.063 81.0843 99.4221 85.1307 99.4221C87.2502 99.4221 88.6472 100.024 90.2369 100.951C90.4778 101.09 90.4296 101.183 90.3332 101.368L89.9479 101.97C89.8033 102.202 89.707 102.248 89.4661 102.109C88.2619 101.275 86.8167 100.812 85.3234 100.812C82.1441 100.905 81.4697 102.619 81.4697 103.638Z" fill="#D31216"/>
<path d="M105.664 99.4221C105.965 99.4221 105.965 99.5178 105.965 99.7571V100.571C105.965 100.81 105.914 100.906 105.664 100.906H100.445V113.542C100.445 113.781 100.395 113.877 100.144 113.877H99.0899C98.7888 113.877 98.7386 113.781 98.7386 113.542V100.906H93.57C93.2689 100.906 93.2188 100.81 93.2188 100.571V99.7571C93.2188 99.5178 93.3191 99.4221 93.57 99.4221H105.664Z" fill="#D31216"/>
<path d="M109.364 107.776V99.7506C109.364 99.469 109.455 99.4221 109.681 99.4221H110.587C110.813 99.4221 110.904 99.5159 110.904 99.7506V107.682C110.904 111.061 112.533 112.469 114.887 112.469C117.242 112.469 118.871 111.061 118.871 107.682V99.7506C118.871 99.5159 118.962 99.4221 119.188 99.4221H120.139C120.365 99.4221 120.411 99.5159 120.411 99.7506V107.776C120.411 111.812 118.057 113.877 114.887 113.877C111.718 113.877 109.364 111.812 109.364 107.776Z" fill="#D31216"/>
<path d="M127.941 100.811V112.441H131.469C134.635 112.441 136.715 109.713 136.715 106.602C136.715 103.491 134.635 100.763 131.469 100.763L127.941 100.811ZM131.469 99.4226C135.177 99.3747 138.207 102.486 138.252 106.363C138.252 106.458 138.252 106.554 138.252 106.65C138.343 110.574 135.403 113.781 131.74 113.877C131.65 113.877 131.559 113.877 131.469 113.877H126.675C126.449 113.877 126.358 113.781 126.358 113.542V99.7576C126.358 99.5183 126.449 99.4226 126.675 99.4226H131.469Z" fill="#D31216"/>
<path d="M143.353 99.7571C143.353 99.5178 143.452 99.4221 143.702 99.4221H144.752C145.002 99.4221 145.052 99.5178 145.052 99.7571V113.542C145.052 113.781 145.002 113.877 144.752 113.877H143.702C143.452 113.877 143.353 113.781 143.353 113.542V99.7571Z" fill="#D31216"/>
<path d="M157.258 112.491C160.396 112.491 162.795 109.628 162.795 106.672C162.795 103.671 160.396 100.854 157.258 100.854C154.166 100.854 151.72 103.671 151.72 106.672C151.72 109.628 154.166 112.491 157.258 112.491ZM157.258 99.4226C161.226 99.3764 164.549 102.563 164.595 106.534C164.641 110.505 161.457 113.83 157.488 113.876C153.52 113.922 150.197 110.736 150.151 106.765C150.151 106.719 150.151 106.719 150.151 106.672C150.105 102.701 153.289 99.4687 157.258 99.4226Z" fill="#D31216"/>
<path d="M169.841 103.638C169.841 105.26 171.768 105.676 174.08 105.954C176.777 106.279 179.042 107.113 179.042 109.753C179.042 111.885 177.307 113.877 173.743 113.877C171.527 113.877 169.696 113.413 168.155 112.348C167.962 112.209 167.962 112.116 168.058 111.885L168.444 111.236C168.588 111.004 168.685 110.958 168.925 111.097C170.274 111.977 171.912 112.441 173.55 112.441C175.477 112.441 177.452 111.838 177.452 109.753C177.452 108.086 175.91 107.576 173.165 107.205C170.901 106.927 168.251 106.232 168.251 103.592C168.251 102.063 169.455 99.4221 173.502 99.4221C175.621 99.4221 177.018 100.024 178.608 100.951C178.849 101.09 178.801 101.183 178.704 101.368L178.319 101.97C178.174 102.202 178.078 102.248 177.885 102.109C176.681 101.275 175.236 100.812 173.743 100.766C170.563 100.905 169.841 102.619 169.841 103.638Z" fill="#D31216"/>
</svg>
