<svg width="191" height="39" viewBox="0 0 191 39" fill="none" xmlns="http://www.w3.org/2000/svg">
<mask id="mask0_601_21351" style="mask-type:luminance" maskUnits="userSpaceOnUse" x="161" y="1" width="30" height="37">
<path fill-rule="evenodd" clip-rule="evenodd" d="M161.874 1.8455H190.668V37.133H161.874V1.8455Z" fill="white"/>
</mask>
<g mask="url(#mask0_601_21351)">
<path fill-rule="evenodd" clip-rule="evenodd" d="M173.758 15.2628C174.422 14.48 175.158 13.8369 176.005 13.2945C177.91 12.079 180.048 11.7875 182.297 11.9603C184.174 12.103 185.862 12.6875 187.302 13.8354C188.829 15.0524 189.71 16.6075 190.176 18.3774C190.541 19.7597 190.666 21.169 190.663 22.5919C190.653 27.2677 190.655 31.9449 190.668 36.6191C190.67 37.0023 190.581 37.1345 190.127 37.133C186.549 37.1135 182.969 37.115 179.391 37.1315C178.973 37.133 178.861 37.0338 178.861 36.6492C178.875 32.322 178.868 27.9934 178.86 23.6647C178.86 23.1734 178.751 22.6911 178.625 22.2118C178.215 20.6432 176.031 20.2751 174.831 21.2201C174.18 21.7355 173.87 22.3951 173.756 23.1433C173.69 23.5715 173.658 24.0042 173.659 24.44C173.667 28.5072 173.658 32.5759 173.672 36.6432C173.674 37.0173 173.582 37.133 173.153 37.1315C169.557 37.115 165.962 37.1165 162.367 37.13C161.96 37.133 161.874 37.0128 161.876 36.6627C161.882 25.2273 161.884 13.7903 161.874 2.35486C161.872 1.95069 162.001 1.84402 162.435 1.84552C166.013 1.86055 169.593 1.86055 173.173 1.84552C173.572 1.84402 173.674 1.95069 173.672 2.30829C173.659 6.44915 173.662 10.5885 173.666 14.7294C173.666 14.8826 173.62 15.0434 173.758 15.2628Z" fill="#1FA5FF"/>
</g>
<path fill-rule="evenodd" clip-rule="evenodd" d="M61.3005 15.2314C62.0698 14.411 62.9294 13.753 63.9008 13.197C65.8404 12.0852 67.9656 11.7907 70.1912 11.956C72.4019 12.1197 74.3217 12.883 75.8536 14.387C77.277 15.7828 77.9772 17.4761 78.3175 19.3242C78.5755 20.729 78.5969 22.1429 78.5936 23.5612C78.5854 27.9049 78.5821 32.2486 78.6035 36.5908C78.6068 37.0521 78.4555 37.1332 77.992 37.1302C74.4285 37.1122 70.8651 37.1152 67.3016 37.1287C66.9087 37.1302 66.7986 37.0355 66.8003 36.6719C66.8134 32.516 66.8068 28.3617 66.8101 24.2058C66.8118 23.6108 66.7526 23.0218 66.6195 22.4403C66.4123 21.5389 65.8634 20.9228 64.8295 20.7485C63.8071 20.5788 62.9491 20.8312 62.318 21.614C61.7246 22.3502 61.6063 23.2111 61.6046 24.0871C61.5947 28.2565 61.5931 32.4259 61.6095 36.5953C61.6112 37.004 61.5126 37.1332 61.0441 37.1317C57.4642 37.1122 53.8843 37.1152 50.306 37.1287C49.9066 37.1302 49.8047 37.028 49.8047 36.6689C49.8162 28.7929 49.8162 20.9168 49.8047 13.0408C49.8047 12.6651 49.9033 12.5434 50.3307 12.5449C53.8152 12.56 57.2998 12.56 60.7844 12.5449C61.2134 12.5434 61.3252 12.6682 61.3087 13.0423C61.2775 13.771 61.3005 14.5012 61.3005 15.2314Z" fill="#1FA5FF"/>
<path fill-rule="evenodd" clip-rule="evenodd" d="M0.216773 4.12375C0.358128 4.11924 0.501128 4.11023 0.642484 4.11023H29.3443C29.4873 4.11023 29.6286 4.11924 29.77 4.12375C29.9048 4.274 29.8637 4.4543 29.8637 4.62408C29.867 7.36012 29.867 10.0977 29.8653 12.8322C29.8653 13.4016 29.8555 13.4106 29.221 13.4106C26.6717 13.4121 24.1223 13.4106 21.573 13.4121C20.9796 13.4121 20.9796 13.4136 20.9796 13.9666V36.4618C20.9796 37.0373 20.9796 37.0388 20.3616 37.0403H9.62515C9.00877 37.0388 9.00878 37.0373 9.00878 36.4618V13.9666C9.00878 13.4136 9.00877 13.4121 8.41377 13.4121C5.86607 13.4106 3.31674 13.4121 0.765759 13.4106C0.131302 13.4106 0.12144 13.4016 0.12144 12.8322C0.119796 10.0977 0.119796 7.36012 0.123083 4.62408C0.123083 4.4543 0.0819916 4.274 0.216773 4.12375Z" fill="#1FA5FF"/>
<mask id="mask1_601_21351" style="mask-type:luminance" maskUnits="userSpaceOnUse" x="133" y="11" width="26" height="28">
<path fill-rule="evenodd" clip-rule="evenodd" d="M133.242 11.6378H158.23V38.0695H133.242V11.6378Z" fill="white"/>
</mask>
<g mask="url(#mask1_601_21351)">
<path fill-rule="evenodd" clip-rule="evenodd" d="M145.623 38.0701C141.553 37.9784 137.661 37.1881 134.137 35.1778C133.815 34.9945 133.345 34.8277 133.256 34.5632C133.153 34.2597 133.649 34.0284 133.884 33.7729C135.47 32.0616 137.086 30.3743 138.672 28.6645C138.912 28.406 139.053 28.5277 139.239 28.6735C140.304 29.5059 141.527 30.0708 142.862 30.4239C143.809 30.6748 144.773 30.8326 145.763 30.6177C146.223 30.52 146.603 30.3352 146.65 29.8439C146.697 29.3646 146.378 29.0837 145.955 28.9049C144.913 28.4691 143.799 28.2513 142.694 27.9989C140.74 27.5526 138.882 26.9291 137.364 25.655C135.439 24.0398 134.673 22.0295 134.92 19.6781C135.312 15.9489 137.837 13.8124 141.424 12.5397C144.805 11.3378 148.266 11.4504 151.736 12.2152C153.937 12.7005 156.001 13.4818 157.936 14.5636C158.316 14.7754 158.304 14.9047 158.036 15.1931C156.379 16.9811 154.739 18.7811 153.1 20.5826C152.916 20.7854 152.77 20.832 152.505 20.6832C151.072 19.8749 149.533 19.334 147.832 19.2619C147.326 19.2393 146.821 19.2949 146.337 19.4347C145.916 19.5564 145.669 19.8343 145.658 20.237C145.648 20.6156 145.908 20.844 146.272 20.9822C147.216 21.3353 148.219 21.4751 149.206 21.6689C151.498 22.1166 153.646 22.8543 155.372 24.3688C157.186 25.96 157.717 27.9508 157.551 30.1895C157.277 33.9127 154.195 36.5555 150.018 37.5472C148.59 37.8883 147.132 38.0385 145.623 38.0701Z" fill="#1FA5FF"/>
</g>
<path fill-rule="evenodd" clip-rule="evenodd" d="M90.6027 7.062C92.345 7.062 94.0857 7.07101 95.8279 7.05449C96.1978 7.05148 96.3161 7.14013 96.3112 7.48871C96.2898 9.02275 96.3128 10.5568 96.2931 12.0908C96.2882 12.4439 96.3852 12.5626 96.7895 12.5581C98.42 12.5371 100.052 12.5596 101.683 12.5416C102.044 12.5386 102.118 12.6317 102.115 12.9563C102.095 15.2431 102.095 17.5298 102.113 19.8166C102.117 20.1802 102.002 20.2809 101.607 20.2764C99.993 20.2569 98.3773 20.2749 96.7616 20.2629C96.4164 20.2599 96.2931 20.3485 96.2948 20.6776C96.3095 22.6909 96.2964 24.7027 96.3063 26.7146C96.3079 27.0737 96.3408 27.4373 96.4049 27.7919C96.6366 29.0569 97.5768 29.7571 99.066 29.8142C99.8155 29.8443 100.554 29.7706 101.277 29.6099C101.536 29.5513 101.615 29.6024 101.614 29.8458C101.609 32.1175 101.607 34.3908 101.615 36.6626C101.617 36.9014 101.494 36.9871 101.275 37.0547C100.373 37.3387 99.4424 37.5115 98.5006 37.6016C96.1156 37.8285 93.7323 37.8751 91.3818 37.3627C89.2664 36.9014 87.4436 36.012 86.2749 34.2465C85.4087 32.9394 85.0142 31.4925 84.9879 29.987C84.9386 26.964 84.9616 23.938 84.9567 20.912C84.9551 20.2689 84.9567 20.2689 84.2302 20.2689C83.3426 20.2689 82.4567 20.2584 81.5691 20.2734C81.2568 20.2794 81.1631 20.1878 81.1647 19.9038C81.1763 17.5734 81.1763 15.2431 81.1631 12.9127C81.1615 12.6182 81.2667 12.5401 81.5707 12.5446C82.5372 12.5581 83.5037 12.5386 84.4685 12.5551C84.8006 12.5611 84.9008 12.468 84.8975 12.163C84.8844 10.6139 84.9025 9.06482 84.8827 7.51725C84.8778 7.16267 84.9715 7.04848 85.3758 7.05298C87.1181 7.07402 88.8604 7.062 90.6027 7.062Z" fill="#1FA5FF"/>
<path fill-rule="evenodd" clip-rule="evenodd" d="M32.5161 24.8315C32.5161 20.8935 32.521 16.9554 32.5078 13.0174C32.5078 12.6658 32.595 12.5486 33.0026 12.5501C36.5956 12.5637 40.192 12.5637 43.7867 12.5501C44.2174 12.5486 44.311 12.6733 44.311 13.046C44.2995 20.922 44.2995 28.7996 44.311 36.6741C44.311 37.0347 44.2075 37.1339 43.8114 37.1339C40.2167 37.1204 36.6203 37.1189 33.0256 37.1339C32.59 37.1369 32.5062 37.0152 32.5078 36.6441C32.5226 32.706 32.5161 28.7695 32.5161 24.8315Z" fill="#1FA5FF"/>
<mask id="mask2_601_21351" style="mask-type:luminance" maskUnits="userSpaceOnUse" x="32" y="0" width="13" height="11">
<path fill-rule="evenodd" clip-rule="evenodd" d="M32.3105 0H44.5022V10.9641H32.3105V0Z" fill="white"/>
</mask>
<g mask="url(#mask2_601_21351)">
<path fill-rule="evenodd" clip-rule="evenodd" d="M38.4404 0.00854193C41.182 -0.161239 44.5104 2.2187 44.5022 5.4731C44.4924 8.48709 41.7967 10.9617 38.4847 10.9647C35.0084 10.9692 32.3571 8.58325 32.3111 5.49263C32.2634 2.4546 35.2894 -0.0876174 38.4404 0.00854193Z" fill="#1FA5FF"/>
</g>
<path fill-rule="evenodd" clip-rule="evenodd" d="M0.209595 4.11755C0.209595 7.02788 0.217814 9.9367 0.19809 12.847C0.194802 13.2362 0.321365 13.3293 0.733927 13.3263C3.28326 13.3098 5.83424 13.3188 8.38358 13.3188C9.04598 13.3188 9.04762 13.3188 9.04762 13.9123V36.364C9.04762 36.947 9.04762 36.947 9.6903 36.947C13.2538 36.947 16.8156 36.9394 20.3791 36.956C20.8114 36.9575 20.9363 36.8553 20.9347 36.4511C20.9232 28.9537 20.9264 21.4548 20.9264 13.9559C20.9264 13.3188 20.9264 13.3188 21.6365 13.3188C24.1711 13.3188 26.704 13.3098 29.2385 13.3263C29.6494 13.3293 29.776 13.2377 29.7743 12.847C29.7563 9.9367 29.7628 7.02788 29.7628 4.11755C30.0258 4.14159 29.9321 4.3294 29.9321 4.45111C29.9387 7.33138 29.9305 10.2117 29.9436 13.0919C29.9453 13.436 29.7891 13.4946 29.4604 13.4946C26.8322 13.4856 24.2039 13.4991 21.5757 13.4796C21.1368 13.4766 21.0251 13.5862 21.0267 13.9844C21.0399 21.5104 21.0366 29.0348 21.0366 36.5608C21.0366 37.1227 21.0349 37.1227 20.4268 37.1227C16.768 37.1227 13.1124 37.1167 9.45525 37.1318C9.03612 37.1348 8.92599 37.0356 8.92763 36.6525C8.94078 29.1115 8.93256 21.572 8.94571 14.031C8.94736 13.5998 8.84545 13.4736 8.35235 13.4766C5.73891 13.5021 3.12711 13.4811 0.515319 13.4976C0.114262 13.5006 0.0139985 13.3924 0.0172858 13.0348C0.0320789 10.1981 0.0222168 7.36143 0.0337225 4.52473C0.0337225 4.388 -0.114208 4.15361 0.209595 4.11755Z" fill="#1FA5FF"/>
<path fill-rule="evenodd" clip-rule="evenodd" d="M120.421 28.018C120.307 29.9036 118.961 31.1822 116.913 31.2934C116.145 31.334 115.43 31.1251 114.77 30.7285C113.69 30.0764 113.859 28.4071 114.853 27.8226C115.71 27.3223 116.68 27.1976 117.646 27.0759C118.192 27.0083 118.742 26.9362 119.203 26.9782H119.346C120.483 26.9782 120.483 26.9782 120.421 28.018ZM130.708 23.8863C130.708 22.3327 130.519 20.7987 130.116 19.2902C129.082 15.4288 126.464 12.9918 122.225 12.0737C119.83 11.5554 117.396 11.5223 114.965 11.8529C111.355 12.3442 108.139 13.6333 105.384 15.8465C105.109 16.0674 105.124 16.1921 105.379 16.4189C106.972 17.8493 108.548 19.2947 110.131 20.7356C110.907 21.4433 110.91 21.4493 111.794 20.8979C113.446 19.8641 115.216 19.2271 117.268 19.4029C118.576 19.5141 119.487 20.1917 119.639 21.2284C119.682 21.5064 119.626 21.6656 119.256 21.6581C117.672 21.6281 116.096 21.7603 114.524 21.9271C112.338 22.1614 110.221 22.6287 108.288 23.6204C106.446 24.5669 104.961 25.8245 104.348 27.7657C104.034 28.7544 104.013 29.7671 104.094 30.7782C104.286 33.1507 105.459 35.0228 107.644 36.3284C109.615 37.5064 111.82 37.897 114.128 37.7363C116.408 37.5755 118.532 37.0331 120.054 35.0919C120.054 35.7139 120.08 36.2037 120.044 36.689C120.019 37.0601 120.165 37.1443 120.552 37.1428C123.767 37.1293 126.982 37.1262 130.197 37.1443C130.631 37.1473 130.716 37.0256 130.716 36.6545C130.701 32.3994 130.705 28.1429 130.708 23.8863Z" fill="#1FA5FF"/>
</svg>
