<svg width="25" height="29" viewBox="0 0 25 29" fill="none" xmlns="http://www.w3.org/2000/svg">
<path d="M0.5 27.2255V1.27299C0.5 1.17984 0.613557 1.13423 0.673706 1.20536C4.39301 5.60401 11.5 14.1062 11.5 14.5C11.5 14.8935 4.24231 23.0608 0.674141 27.2931C0.61398 27.3644 0.5 27.3188 0.5 27.2255Z" fill="#D9D9D9" fill-opacity="0.37"/>
<path d="M12.4204 12.9059L1.8782 0.446963C1.80554 0.361089 1.90806 0.23921 2.00511 0.296099L15.9016 8.44234C15.9538 8.47289 15.9671 8.54232 15.93 8.59L12.5757 12.9027C12.5367 12.9529 12.4614 12.9544 12.4204 12.9059Z" fill="#D9D9D9" fill-opacity="0.37"/>
<path d="M15.9378 20.4112L12.5759 15.6084C12.5378 15.554 12.4583 15.5511 12.4164 15.6026L1.85024 28.5702C1.77985 28.6565 1.8822 28.776 1.97834 28.7196L15.9065 20.5548C15.9569 20.5253 15.9713 20.459 15.9378 20.4112Z" fill="#D9D9D9" fill-opacity="0.37"/>
<path d="M13.5 14.5L17.5 9L24.3014 13.676C24.8794 14.0733 24.8794 14.9267 24.3014 15.324L17.5 20L13.5 14.5Z" fill="#D9D9D9" fill-opacity="0.37"/>
</svg>
