<svg width="1782" height="1782" viewBox="0 0 1782 1782" fill="none" xmlns="http://www.w3.org/2000/svg">
<circle cx="892.5" cy="931.328" r="295.5" fill="#16296C" fill-opacity="0.33"/>
<path d="M1518 882.328C1518 1239.93 1228.1 1529.83 870.5 1529.83C512.896 1529.83 223 1239.93 223 882.328C223 524.724 512.896 234.828 870.5 234.828C1228.1 234.828 1518 524.724 1518 882.328Z" fill="#253D6F" fill-opacity="0.14"/>
<path d="M1509 882.328C1509 1234.96 1223.13 1520.83 870.5 1520.83C517.866 1520.83 232 1234.96 232 882.328C232 529.694 517.866 243.828 870.5 243.828C1223.13 243.828 1509 529.694 1509 882.328Z" stroke="#1C41C2" stroke-opacity="0.06" stroke-width="18"/>
<circle cx="891" cy="891" r="882" stroke="#6976C1" stroke-opacity="0.05" stroke-width="18"/>
<circle cx="891" cy="931" r="485" fill="#262E61" fill-opacity="0.13"/>
<circle cx="891" cy="931" r="476" stroke="#1C41C2" stroke-opacity="0.08" stroke-width="18"/>
<circle cx="891" cy="930.828" r="372" fill="#183361" fill-opacity="0.11"/>
</svg>
