<svg width="66" height="65" viewBox="0 0 66 65" fill="none" xmlns="http://www.w3.org/2000/svg">
<g filter="url(#filter0_d_693_23)">
<path d="M23.9355 23.3652C19.1884 27.9842 20.1557 35.3576 25.1626 40.5034C30.1695 45.6492 37.32 46.6187 42.0671 41.9997C46.8143 37.3807 46.6037 29.4648 41.5968 24.319C36.5899 19.1732 28.6827 18.7462 23.9355 23.3652Z" fill="#FFEE8E"/>
</g>
<g filter="url(#filter1_d_693_23)">
<path d="M23.9355 23.3635C19.1884 27.9825 20.1557 35.3559 25.1626 40.5017C30.1695 45.6475 37.32 46.617 42.0671 41.998C46.8143 37.379 46.6037 29.463 41.5968 24.3173C36.5899 19.1715 28.6827 18.7445 23.9355 23.3635Z" fill="#FFEE8E"/>
</g>
<path d="M42.1626 26.0055C45.6626 25.3388 53.0626 24.6055 54.6626 27.0055" stroke="#E7DBA8" stroke-width="0.5"/>
<path d="M36.5914 23.8626C39.2165 21.8203 45.0541 18.0641 47.4042 19.3781" stroke="#E7DBA8" stroke-width="0.5"/>
<path d="M42.0813 42.0556L41.436 39.0017C41.3516 39.7423 41.2276 42.8039 41.2276 42.8039C40.164 43.5239 39.4973 44.7201 39.4583 46.0039L39.4386 46.6509L41.9409 42.808C42.0856 42.5857 42.1361 42.3151 42.0813 42.0556Z" fill="#AF9530"/>
<path fill-rule="evenodd" clip-rule="evenodd" d="M39.4386 46.6509L39.8885 45.1617C40.0681 44.5672 40.3836 44.0227 40.8101 43.5714L41.6973 42.6324C41.6973 42.6324 41.3516 39.7423 41.436 39.0017C41.3516 39.7423 41.2276 42.8039 41.2276 42.8039C40.164 43.5239 39.4973 44.7201 39.4583 46.0039L39.4386 46.6509Z" fill="#715F17"/>
<circle cx="1" cy="1" r="1" transform="matrix(-1 0 0 1 55.6626 26.0017)" fill="#FFDC97"/>
<circle cx="0.933488" cy="0.933488" r="0.933488" transform="matrix(-0.890215 0.45554 0.45554 0.890215 47.811 18.1223)" fill="#FFDC97"/>
<path d="M23.9906 23.3249C19.2434 27.9439 20.0218 35.2183 25.0767 40.4134C30.1315 45.6085 37.32 46.617 42.0671 41.998C46.8143 37.379 46.5648 29.4231 41.5099 24.228C36.455 19.0329 28.7377 18.7059 23.9906 23.3249Z" fill="url(#paint0_radial_693_23)"/>
<path d="M21.0726 31.4431L24.1626 31.0017C23.4959 31.335 20.6626 32.5017 20.6626 32.5017C20.3511 33.7478 19.4562 34.7843 18.2636 35.2613L17.6626 35.5017L20.4141 31.8331C20.5732 31.6209 20.8101 31.4806 21.0726 31.4431Z" fill="#AF9530"/>
<path fill-rule="evenodd" clip-rule="evenodd" d="M17.6626 35.5017L18.9072 34.5683C19.404 34.1957 19.8072 33.7125 20.0849 33.1571L20.6626 32.0017C20.6626 32.0017 23.4959 31.335 24.1626 31.0017C23.4959 31.335 20.6626 32.5017 20.6626 32.5017C20.3511 33.7478 19.4562 34.7843 18.2636 35.2613L17.6626 35.5017Z" fill="#715F17"/>
<path d="M42.1626 36.0051C41.6626 35.5051 40.8626 34.5051 39.6626 34.5051" stroke="#BBAA53" stroke-width="1.2" stroke-linecap="round"/>
<path d="M36.1626 31.5051C35.8293 30.8385 35.0626 29.8051 32.6626 29.0051" stroke="#BBAA53" stroke-width="1.2" stroke-linecap="round"/>
<path d="M37.6626 36.5051V36.5051C37.6626 37.0574 37.2149 37.5051 36.6626 37.5051V37.5051" stroke="#73745E" stroke-opacity="0.2" stroke-width="0.6" stroke-linecap="round"/>
<defs>
<filter id="filter0_d_693_23" x="0.845215" y="0.162109" width="64.6489" height="64.8093" filterUnits="userSpaceOnUse" color-interpolation-filters="sRGB">
<feFlood flood-opacity="0" result="BackgroundImageFix"/>
<feColorMatrix in="SourceAlpha" type="matrix" values="0 0 0 0 0 0 0 0 0 0 0 0 0 0 0 0 0 0 127 0" result="hardAlpha"/>
<feOffset/>
<feGaussianBlur stdDeviation="10"/>
<feComposite in2="hardAlpha" operator="out"/>
<feColorMatrix type="matrix" values="0 0 0 0 1 0 0 0 0 0.972549 0 0 0 0 0.819608 0 0 0 1 0"/>
<feBlend mode="normal" in2="BackgroundImageFix" result="effect1_dropShadow_693_23"/>
<feBlend mode="normal" in="SourceGraphic" in2="effect1_dropShadow_693_23" result="shape"/>
</filter>
<filter id="filter1_d_693_23" x="0.845215" y="0.1604" width="64.6489" height="64.8093" filterUnits="userSpaceOnUse" color-interpolation-filters="sRGB">
<feFlood flood-opacity="0" result="BackgroundImageFix"/>
<feColorMatrix in="SourceAlpha" type="matrix" values="0 0 0 0 0 0 0 0 0 0 0 0 0 0 0 0 0 0 127 0" result="hardAlpha"/>
<feOffset/>
<feGaussianBlur stdDeviation="10"/>
<feComposite in2="hardAlpha" operator="out"/>
<feColorMatrix type="matrix" values="0 0 0 0 1 0 0 0 0 0.972549 0 0 0 0 0.819608 0 0 0 1 0"/>
<feBlend mode="normal" in2="BackgroundImageFix" result="effect1_dropShadow_693_23"/>
<feBlend mode="normal" in="SourceGraphic" in2="effect1_dropShadow_693_23" result="shape"/>
</filter>
<radialGradient id="paint0_radial_693_23" cx="0" cy="0" r="1" gradientUnits="userSpaceOnUse" gradientTransform="translate(36.092 32.9291) rotate(146.925) scale(15.5377 16.9919)">
<stop offset="0.318312" stop-color="#FFF8D1"/>
<stop offset="0.506645" stop-color="#FEF159"/>
</radialGradient>
</defs>
</svg>
