<svg width="196" height="195" viewBox="0 0 196 195" fill="none" xmlns="http://www.w3.org/2000/svg">
<mask id="path-1-inside-1_659_2" fill="white">
<path d="M174.869 60.9474C176.67 60.0975 177.447 57.9446 176.524 56.18C169.732 43.1866 159.811 32.0639 147.635 23.8298C134.462 14.9217 119.134 9.72295 103.259 8.77912C87.3844 7.83529 71.5483 11.1811 57.4122 18.4656C44.3459 25.1988 33.1771 35.0677 24.893 47.1647C23.768 48.8076 24.2847 51.0374 25.972 52.0947V52.0947C27.6594 53.1521 29.8778 52.6361 31.0088 50.9972C38.6016 39.995 48.7995 31.0158 60.7153 24.8755C73.701 18.1838 88.2483 15.1103 102.831 15.9773C117.414 16.8443 131.494 21.6199 143.596 29.8032C154.7 37.3122 163.762 47.4364 169.998 59.2609C170.926 61.0222 173.068 61.7974 174.869 60.9474V60.9474Z"/>
</mask>
<path d="M174.869 60.9474C176.67 60.0975 177.447 57.9446 176.524 56.18C169.732 43.1866 159.811 32.0639 147.635 23.8298C134.462 14.9217 119.134 9.72295 103.259 8.77912C87.3844 7.83529 71.5483 11.1811 57.4122 18.4656C44.3459 25.1988 33.1771 35.0677 24.893 47.1647C23.768 48.8076 24.2847 51.0374 25.972 52.0947V52.0947C27.6594 53.1521 29.8778 52.6361 31.0088 50.9972C38.6016 39.995 48.7995 31.0158 60.7153 24.8755C73.701 18.1838 88.2483 15.1103 102.831 15.9773C117.414 16.8443 131.494 21.6199 143.596 29.8032C154.7 37.3122 163.762 47.4364 169.998 59.2609C170.926 61.0222 173.068 61.7974 174.869 60.9474V60.9474Z" stroke="#50C3FF" stroke-width="30" stroke-linejoin="round" mask="url(#path-1-inside-1_659_2)"/>
<mask id="path-2-inside-2_659_2" fill="white">
<path d="M106.357 183.36C106.553 185.341 108.319 186.797 110.291 186.52C120.967 185.025 131.29 181.593 140.75 176.382C151.263 170.591 160.49 162.725 167.872 153.26C175.253 143.795 180.634 132.929 183.689 121.321C186.438 110.877 187.251 100.029 186.1 89.3106C185.888 87.3307 184.046 85.972 182.076 86.2649V86.2649C180.107 86.5579 178.756 88.3916 178.961 90.3722C179.973 100.123 179.216 109.987 176.716 119.486C173.909 130.149 168.966 140.131 162.185 148.825C155.405 157.52 146.929 164.747 137.271 170.066C128.667 174.805 119.285 177.943 109.581 179.338C107.61 179.621 106.161 181.378 106.357 183.36V183.36Z"/>
</mask>
<path d="M106.357 183.36C106.553 185.341 108.319 186.797 110.291 186.52C120.967 185.025 131.29 181.593 140.75 176.382C151.263 170.591 160.49 162.725 167.872 153.26C175.253 143.795 180.634 132.929 183.689 121.321C186.438 110.877 187.251 100.029 186.1 89.3106C185.888 87.3307 184.046 85.972 182.076 86.2649V86.2649C180.107 86.5579 178.756 88.3916 178.961 90.3722C179.973 100.123 179.216 109.987 176.716 119.486C173.909 130.149 168.966 140.131 162.185 148.825C155.405 157.52 146.929 164.747 137.271 170.066C128.667 174.805 119.285 177.943 109.581 179.338C107.61 179.621 106.161 181.378 106.357 183.36V183.36Z" stroke="#50C3FF" stroke-width="30" stroke-linejoin="round" mask="url(#path-2-inside-2_659_2)"/>
<mask id="path-3-inside-3_659_2" fill="white">
<path d="M15.3781 78.8005C13.4426 78.3327 11.4867 79.5219 11.0979 81.4748C6.92315 102.448 10.4696 124.271 21.157 142.887C31.8443 161.502 48.9028 175.569 69.1194 182.538C71.0019 183.187 73.0151 182.098 73.587 180.19V180.19C74.1589 178.283 73.0728 176.281 71.1927 175.625C52.7425 169.19 37.1793 156.312 27.4105 139.297C17.6418 122.281 14.3677 102.348 18.1134 83.17C18.4951 81.2157 17.3136 79.2683 15.3781 78.8005V78.8005Z"/>
</mask>
<path d="M15.3781 78.8005C13.4426 78.3327 11.4867 79.5219 11.0979 81.4748C6.92315 102.448 10.4696 124.271 21.157 142.887C31.8443 161.502 48.9028 175.569 69.1194 182.538C71.0019 183.187 73.0151 182.098 73.587 180.19V180.19C74.1589 178.283 73.0728 176.281 71.1927 175.625C52.7425 169.19 37.1793 156.312 27.4105 139.297C17.6418 122.281 14.3677 102.348 18.1134 83.17C18.4951 81.2157 17.3136 79.2683 15.3781 78.8005V78.8005Z" stroke="#50C3FF" stroke-width="30" stroke-linejoin="round" mask="url(#path-3-inside-3_659_2)"/>
<mask id="path-4-outside-4_659_2" maskUnits="userSpaceOnUse" x="16" y="0" width="170" height="63" fill="black">
<rect fill="white" x="16" width="170" height="63"/>
<path d="M178.884 58.1336C180.779 57.1997 181.565 54.9022 180.554 53.047C173.214 39.5663 162.673 28.07 149.836 19.5842C135.934 10.3943 119.838 5.06552 103.199 4.14387C86.5591 3.22221 69.9736 6.74078 55.1415 14.3391C41.4457 21.3553 29.6996 31.6171 20.9152 44.2046C19.7063 45.9369 20.2336 48.3072 22.0136 49.4446V49.4446C23.7937 50.5821 26.1519 50.0556 27.367 48.3276C35.4169 36.8808 46.1407 27.5453 58.6294 21.1475C72.2544 14.1675 87.4901 10.9353 102.776 11.782C118.061 12.6286 132.847 17.5237 145.617 25.9657C157.323 33.7036 166.95 44.1664 173.687 56.4322C174.704 58.2838 176.989 59.0675 178.884 58.1336V58.1336Z"/>
</mask>
<path d="M178.884 58.1336C180.779 57.1997 181.565 54.9022 180.554 53.047C173.214 39.5663 162.673 28.07 149.836 19.5842C135.934 10.3943 119.838 5.06552 103.199 4.14387C86.5591 3.22221 69.9736 6.74078 55.1415 14.3391C41.4457 21.3553 29.6996 31.6171 20.9152 44.2046C19.7063 45.9369 20.2336 48.3072 22.0136 49.4446V49.4446C23.7937 50.5821 26.1519 50.0556 27.367 48.3276C35.4169 36.8808 46.1407 27.5453 58.6294 21.1475C72.2544 14.1675 87.4901 10.9353 102.776 11.782C118.061 12.6286 132.847 17.5237 145.617 25.9657C157.323 33.7036 166.95 44.1664 173.687 56.4322C174.704 58.2838 176.989 59.0675 178.884 58.1336V58.1336Z" stroke="white" stroke-width="8" stroke-linejoin="round" mask="url(#path-4-outside-4_659_2)"/>
<mask id="path-5-outside-5_659_2" maskUnits="userSpaceOnUse" x="105" y="82" width="91" height="113" fill="black">
<rect fill="white" x="105" y="82" width="91" height="113"/>
<path d="M109.089 187.491C109.349 189.587 111.261 191.084 113.345 190.739C124.245 188.936 134.752 185.223 144.379 179.762C155.116 173.671 164.548 165.526 172.137 155.79C179.726 146.054 185.324 134.919 188.609 123.02C191.555 112.351 192.591 101.255 191.68 90.245C191.505 88.1398 189.587 86.6511 187.491 86.9109V86.9109C185.394 87.1707 183.914 89.0805 184.081 91.1864C184.874 101.199 183.914 111.283 181.235 120.984C178.217 131.914 173.075 142.143 166.104 151.087C159.133 160.03 150.468 167.513 140.604 173.108C131.851 178.073 122.306 181.465 112.403 183.141C110.32 183.493 108.829 185.394 109.089 187.491V187.491Z"/>
</mask>
<path d="M109.089 187.491C109.349 189.587 111.261 191.084 113.345 190.739C124.245 188.936 134.752 185.223 144.379 179.762C155.116 173.671 164.548 165.526 172.137 155.79C179.726 146.054 185.324 134.919 188.609 123.02C191.555 112.351 192.591 101.255 191.68 90.245C191.505 88.1398 189.587 86.6511 187.491 86.9109V86.9109C185.394 87.1707 183.914 89.0805 184.081 91.1864C184.874 101.199 183.914 111.283 181.235 120.984C178.217 131.914 173.075 142.143 166.104 151.087C159.133 160.03 150.468 167.513 140.604 173.108C131.851 178.073 122.306 181.465 112.403 183.141C110.32 183.493 108.829 185.394 109.089 187.491V187.491Z" stroke="white" stroke-width="8" stroke-linejoin="round" mask="url(#path-5-outside-5_659_2)"/>
<mask id="path-6-outside-6_659_2" maskUnits="userSpaceOnUse" x="-1" y="75" width="77" height="116" fill="black">
<rect fill="white" x="-1" y="75" width="77" height="116"/>
<path d="M9.71556 79.6314C7.64742 79.2011 5.61384 80.5283 5.26798 82.6122C1.67369 104.269 5.76966 126.549 16.9164 145.555C28.0632 164.561 45.5091 179.011 66.165 186.445C68.1526 187.161 70.3036 186.034 70.9376 184.018V184.018C71.5716 182.003 70.4483 179.864 68.4633 179.142C49.6161 172.281 33.702 159.054 23.5151 141.685C13.3281 124.315 9.55167 103.969 12.7642 84.1714C13.1026 82.0863 11.7837 80.0617 9.71556 79.6314V79.6314Z"/>
</mask>
<path d="M9.71556 79.6314C7.64742 79.2011 5.61384 80.5283 5.26798 82.6122C1.67369 104.269 5.76966 126.549 16.9164 145.555C28.0632 164.561 45.5091 179.011 66.165 186.445C68.1526 187.161 70.3036 186.034 70.9376 184.018V184.018C71.5716 182.003 70.4483 179.864 68.4633 179.142C49.6161 172.281 33.702 159.054 23.5151 141.685C13.3281 124.315 9.55167 103.969 12.7642 84.1714C13.1026 82.0863 11.7837 80.0617 9.71556 79.6314V79.6314Z" stroke="white" stroke-width="8" stroke-linejoin="round" mask="url(#path-6-outside-6_659_2)"/>
<path fill-rule="evenodd" clip-rule="evenodd" d="M40.5789 77.2549L52.6038 57.1603C54.2873 54.3471 58.2042 53.8949 60.9398 55.7019C70.1849 61.8086 83.21 63.3798 82.4862 41.181C82.389 38.1972 84.6787 35.5898 87.664 35.5898H108.108C111.128 35.5898 113.435 38.252 113.441 41.2719C113.462 52.9353 118.425 66.0537 138.054 55.9277C140.644 54.5916 143.902 55.4369 145.258 58.0169L155.172 76.8888C156.51 79.437 155.405 82.5621 152.975 84.1057C143.804 89.932 135.874 100.752 153.313 112.679C155.619 114.257 156.48 117.334 155.066 119.743L143.842 138.853C142.298 141.483 138.787 142.102 136.155 140.563C126.754 135.068 114.093 133.236 113 154.693C112.856 157.506 110.627 159.845 107.811 159.845H87.1222C83.9877 159.845 81.6451 156.989 81.825 153.86C82.4982 142.147 78.5268 129.146 59.1838 139.346C56.6863 140.663 53.526 139.937 52.0914 137.505L40.966 118.646C39.4027 115.996 40.6058 112.596 43.2437 111.013C51.9864 105.765 59.0117 96.0288 42.2493 84.3045C39.971 82.711 39.1513 79.6406 40.5789 77.2549ZM96.5304 113.608C107.312 113.608 116.053 104.867 116.053 94.0855C116.053 83.3034 107.312 74.5629 96.5304 74.5629C85.7484 74.5629 77.0078 83.3034 77.0078 94.0855C77.0078 104.867 85.7484 113.608 96.5304 113.608Z" fill="url(#paint0_linear_659_2)"/>
<path fill-rule="evenodd" clip-rule="evenodd" d="M114.722 98.4255C115.063 97.0699 115.244 95.6507 115.244 94.1893C115.244 84.6345 107.498 76.8888 97.9435 76.8888C88.3888 76.8888 80.6431 84.6345 80.6431 94.1893C80.6431 95.6507 80.8243 97.0699 81.1655 98.4255C83.0549 90.9186 89.8502 85.3612 97.9435 85.3612C106.037 85.3612 112.832 90.9186 114.722 98.4255Z" fill="#105BA3"/>
<path fill-rule="evenodd" clip-rule="evenodd" d="M47.4183 77.784L57.3774 61.5576C59.0665 58.8053 62.9089 58.3662 65.6618 60.0542C73.7338 65.0035 84.6372 65.9592 84.3324 47.9003C84.2819 44.9097 86.5625 42.2793 89.5536 42.2793H106.464C109.49 42.2793 111.791 44.9575 111.866 47.9831C112.106 57.8029 116.651 68.2915 133.294 60.152C135.873 58.8906 139.075 59.712 140.437 62.2396L148.615 77.417C149.999 79.9858 148.87 83.1621 146.424 84.7542C138.639 89.8232 132.371 98.8247 146.743 108.757C149.077 110.369 149.965 113.503 148.502 115.933L139.214 131.352C137.665 133.923 134.223 134.524 131.591 133.081C123.387 128.585 112.694 127.371 111.504 144.917C111.314 147.728 109.094 150.075 106.276 150.075H89.132C85.988 150.075 83.6504 147.198 83.7639 144.056C84.1194 134.211 80.3891 123.86 64.0046 132.075C61.5201 133.321 58.4282 132.611 56.9894 130.233L47.8149 115.07C46.2016 112.404 47.4263 108.951 50.0718 107.303C57.4193 102.728 62.8407 94.641 49.0953 84.946C46.7878 83.3184 45.9412 80.1906 47.4183 77.784ZM97.9489 111.48C107.504 111.48 115.249 103.734 115.249 94.1797C115.249 84.6249 107.504 76.8792 97.9489 76.8792C88.3941 76.8792 80.6484 84.6249 80.6484 94.1797C80.6484 103.734 88.3941 111.48 97.9489 111.48Z" fill="white"/>
<path fill-rule="evenodd" clip-rule="evenodd" d="M47.329 77.925C45.9771 80.31 46.8358 83.3421 49.0953 84.9358C55.7542 89.6325 57.9149 93.9519 57.5375 97.6775C59.9683 92.7111 58.7372 86.261 48.7999 79.4038C48.2106 78.9972 47.7152 78.4922 47.329 77.925ZM50.1301 107.257C50.1107 107.269 50.0913 107.281 50.0718 107.293C47.4263 108.94 46.2016 112.393 47.8149 115.06L56.9894 130.223C58.4282 132.601 61.5201 133.31 64.0046 132.065C80.3891 123.849 84.1194 134.2 83.7639 144.046C83.6504 147.188 85.988 150.064 89.132 150.064H106.276C109.094 150.064 111.314 147.718 111.504 144.907C112.694 127.361 123.387 128.574 131.591 133.071C134.223 134.514 137.665 133.913 139.214 131.341L148.502 115.923C149.614 114.076 149.368 111.823 148.161 110.139C148.049 110.347 147.921 110.549 147.776 110.744L139.353 122.111C137.679 124.371 134.485 124.768 132.041 123.378C123.784 118.68 112.714 117.091 111.503 134.961C111.312 137.773 109.092 140.119 106.275 140.119H89.1305C85.9865 140.119 83.6489 137.242 83.7624 134.1C84.1193 124.218 80.3594 113.826 63.8176 122.213C61.41 123.433 58.416 122.807 56.925 120.557L50.8238 111.35C49.9974 110.102 49.8219 108.648 50.1301 107.257ZM138.527 93.8675C136.705 87.7858 141.423 82.5939 146.725 79.2269C147.487 78.7431 148.125 78.1055 148.599 77.3784L148.615 77.4068C149.999 79.9756 148.87 83.1519 146.424 84.744C142.868 87.0598 139.627 90.1964 138.527 93.8675Z" fill="#50C3FF"/>
<defs>
<linearGradient id="paint0_linear_659_2" x1="97.9441" y1="35.5898" x2="97.9441" y2="156.772" gradientUnits="userSpaceOnUse">
<stop stop-color="#4AA3F6"/>
<stop offset="0.846228" stop-color="#0F5FAA"/>
</linearGradient>
</defs>
</svg>
