<svg width="203" height="208" viewBox="0 0 203 208" fill="none" xmlns="http://www.w3.org/2000/svg">
<path fill-rule="evenodd" clip-rule="evenodd" d="M91.1268 79.5968H100.881H116.424C116.424 71.0879 123.096 64.0737 131.594 63.6488L138.754 63.2908C151.294 62.6637 161.815 69.2975 163.374 81.7562C165.537 99.0457 165.071 124.728 151.392 146.007C133.588 173.701 120.78 132.583 116.424 111.389H90.6368C84.7022 143.604 72.147 154.955 66.6128 154.484C45.7497 149.783 40.5332 105.081 42.6213 78.114C43.2545 69.9366 50.4137 64.4074 58.6156 64.4074H75.9373C84.0556 64.4074 90.6368 70.9885 90.6368 79.1068C90.6368 79.3774 90.8562 79.5968 91.1268 79.5968ZM67.3229 79.5962C64.0064 79.5962 61.3178 82.2848 61.3178 85.6013V92.0187L54.9002 92.0823C51.5839 92.1152 48.9221 94.8303 48.9549 98.1467C48.9878 101.463 51.7029 104.125 55.0193 104.092L61.3178 104.03V110.328C61.3178 113.645 64.0064 116.333 67.3229 116.333C70.6395 116.333 73.3281 113.645 73.3281 110.328V103.91L79.7451 103.847C83.0615 103.814 85.7233 101.099 85.6904 97.7824C85.6575 94.466 82.9424 91.8042 79.626 91.8371L73.3281 91.8996V85.6013C73.3281 82.2848 70.6395 79.5962 67.3229 79.5962ZM146.09 84.1872C146.09 87.894 143.085 90.8989 139.379 90.8989C135.672 90.8989 132.667 87.894 132.667 84.1872C132.667 80.4805 135.672 77.4756 139.379 77.4756C143.085 77.4756 146.09 80.4805 146.09 84.1872ZM146.09 106.088C146.09 109.795 143.085 112.8 139.379 112.8C135.672 112.8 132.667 109.795 132.667 106.088C132.667 102.382 135.672 99.3767 139.379 99.3767C143.085 99.3767 146.09 102.382 146.09 106.088ZM149.976 102.203C153.683 102.203 156.688 99.1977 156.688 95.491C156.688 91.7843 153.683 88.7794 149.976 88.7794C146.269 88.7794 143.264 91.7843 143.264 95.491C143.264 99.1977 146.269 102.203 149.976 102.203ZM134.787 95.491C134.787 99.1977 131.782 102.203 128.075 102.203C124.368 102.203 121.363 99.1977 121.363 95.491C121.363 91.7843 124.368 88.7794 128.075 88.7794C131.782 88.7794 134.787 91.7843 134.787 95.491Z" fill="#0F5FAA"/>
<path fill-rule="evenodd" clip-rule="evenodd" d="M91.1256 74.6527H100.88H116.422C116.422 66.1438 123.095 59.1296 131.593 58.7047L138.753 58.3467C151.293 57.7197 162.151 64.2653 163.732 76.7212C165.715 92.3357 164.916 114.925 151.747 135.411C133.943 163.105 120.779 127.639 116.422 106.445H90.6357C84.7011 138.66 72.1492 145.772 66.6151 145.301C45.8365 140.619 40.5757 99.169 42.5954 73.1671C43.2306 64.9898 50.4125 59.4633 58.6144 59.4633H75.9362C84.0545 59.4633 90.6357 66.0444 90.6357 74.1627C90.6357 74.4333 90.855 74.6527 91.1256 74.6527ZM67.3203 74.6534C64.0037 74.6534 61.3151 77.342 61.3151 80.6585V87.0759L54.8976 87.1395C51.5812 87.1724 48.9194 89.8875 48.9523 93.2039C48.9852 96.5203 51.7003 99.1821 55.0166 99.1492L61.3151 99.0867V105.386C61.3151 108.702 64.0037 111.391 67.3203 111.391C70.6368 111.391 73.3254 108.702 73.3254 105.386V98.9676L79.7424 98.904C83.0588 98.8711 85.7206 96.156 85.6877 92.8396C85.6549 89.5232 82.9397 86.8614 79.6234 86.8943L73.3254 86.9568V80.6585C73.3254 77.342 70.6368 74.6534 67.3203 74.6534ZM146.092 81.365C146.092 85.0717 143.087 88.0766 139.38 88.0766C135.674 88.0766 132.669 85.0717 132.669 81.365C132.669 77.6583 135.674 74.6534 139.38 74.6534C143.087 74.6534 146.092 77.6583 146.092 81.365ZM146.092 103.266C146.092 106.973 143.087 109.978 139.38 109.978C135.674 109.978 132.669 106.973 132.669 103.266C132.669 99.5594 135.674 96.5545 139.38 96.5545C143.087 96.5545 146.092 99.5594 146.092 103.266ZM149.978 99.3804C153.684 99.3804 156.689 96.3755 156.689 92.6688C156.689 88.9621 153.684 85.9572 149.978 85.9572C146.271 85.9572 143.266 88.9621 143.266 92.6688C143.266 96.3755 146.271 99.3804 149.978 99.3804ZM134.788 92.6688C134.788 96.3755 131.783 99.3804 128.077 99.3804C124.37 99.3804 121.365 96.3755 121.365 92.6688C121.365 88.9621 124.37 85.9572 128.077 85.9572C131.783 85.9572 134.788 88.9621 134.788 92.6688Z" fill="white"/>
<path fill-rule="evenodd" clip-rule="evenodd" d="M164.421 84.5029C163.787 97.3205 160.501 111.88 151.739 125.509C133.936 153.204 120.772 117.738 116.415 96.5434H90.6282C84.6937 128.759 72.1418 135.871 66.6077 135.4C49.7117 131.593 43.0761 103.475 42.2721 79.1193C41.4319 105.053 47.3619 140.961 66.6156 145.3C72.1497 145.771 84.7016 138.659 90.6362 106.443H116.423C120.78 127.638 133.944 163.103 151.747 135.409C162.862 118.119 165.165 99.3315 164.421 84.5029Z" fill="#50C3FF"/>
<mask id="path-4-inside-1_659_139" fill="white">
<path d="M177.855 54.7075C179.58 53.7105 180.176 51.4996 179.109 49.817C171.176 37.2983 160.218 26.9512 147.222 19.7454C133.174 11.9558 117.273 8.1299 101.219 8.67667C85.1653 9.22344 69.5617 14.1223 56.076 22.8497C43.6012 30.923 33.3726 41.9916 26.3091 55.0211C25.3597 56.7724 26.1047 58.9376 27.8931 59.815V59.815C29.6815 60.6923 31.8355 59.9492 32.7912 58.2014C39.2747 46.344 48.6181 36.2689 59.9954 28.9059C72.3835 20.8888 86.7174 16.3886 101.465 15.8863C116.212 15.384 130.819 18.8985 143.724 26.0543C155.576 32.6261 165.583 42.0422 172.858 53.4309C173.931 55.1097 176.13 55.7045 177.855 54.7075V54.7075Z"/>
</mask>
<path d="M177.855 54.7075C179.58 53.7105 180.176 51.4996 179.109 49.817C171.176 37.2983 160.218 26.9512 147.222 19.7454C133.174 11.9558 117.273 8.1299 101.219 8.67667C85.1653 9.22344 69.5617 14.1223 56.076 22.8497C43.6012 30.923 33.3726 41.9916 26.3091 55.0211C25.3597 56.7724 26.1047 58.9376 27.8931 59.815V59.815C29.6815 60.6923 31.8355 59.9492 32.7912 58.2014C39.2747 46.344 48.6181 36.2689 59.9954 28.9059C72.3835 20.8888 86.7174 16.3886 101.465 15.8863C116.212 15.384 130.819 18.8985 143.724 26.0543C155.576 32.6261 165.583 42.0422 172.858 53.4309C173.931 55.1097 176.13 55.7045 177.855 54.7075V54.7075Z" stroke="#50C3FF" stroke-width="30" stroke-linejoin="round" mask="url(#path-4-inside-1_659_139)"/>
<mask id="path-5-inside-2_659_139" fill="white">
<path d="M112.807 183.669C113.004 185.651 114.77 187.106 116.743 186.832C127.544 185.327 137.987 181.856 147.546 176.582C158.157 170.727 167.455 162.774 174.868 153.211C182.282 143.648 187.655 132.677 190.658 120.971C193.361 110.434 194.092 99.5024 192.826 88.7212C192.593 86.7363 190.731 85.3906 188.757 85.7024V85.7024C186.78 86.0147 185.439 87.8716 185.665 89.8608C186.78 99.667 186.097 109.604 183.639 119.185C180.881 129.938 175.945 140.017 169.134 148.802C162.324 157.586 153.783 164.892 144.035 170.27C135.342 175.067 125.852 178.24 116.035 179.644C114.062 179.926 112.61 181.685 112.807 183.669V183.669Z"/>
</mask>
<path d="M112.807 183.669C113.004 185.651 114.77 187.106 116.743 186.832C127.544 185.327 137.987 181.856 147.546 176.582C158.157 170.727 167.455 162.774 174.868 153.211C182.282 143.648 187.655 132.677 190.658 120.971C193.361 110.434 194.092 99.5024 192.826 88.7212C192.593 86.7363 190.731 85.3906 188.757 85.7024V85.7024C186.78 86.0147 185.439 87.8716 185.665 89.8608C186.78 99.667 186.097 109.604 183.639 119.185C180.881 129.938 175.945 140.017 169.134 148.802C162.324 157.586 153.783 164.892 144.035 170.27C135.342 175.067 125.852 178.24 116.035 179.644C114.062 179.926 112.61 181.685 112.807 183.669V183.669Z" stroke="#50C3FF" stroke-width="30" stroke-linejoin="round" mask="url(#path-5-inside-2_659_139)"/>
<mask id="path-6-inside-3_659_139" fill="white">
<path d="M19.4809 91.9163C17.4955 91.7548 15.7473 93.2338 15.6667 95.2242C14.8931 114.329 20.3191 133.209 31.186 149.019C42.0529 164.829 57.7355 176.66 75.8489 182.783C77.736 183.421 79.7431 182.319 80.3037 180.407V180.407C80.8644 178.495 79.7661 176.499 77.8812 175.854C61.3595 170.203 47.0578 159.376 37.1309 144.933C27.204 130.49 22.2196 113.259 22.8633 95.8091C22.9367 93.8185 21.4664 92.0778 19.4809 91.9163V91.9163Z"/>
</mask>
<path d="M19.4809 91.9163C17.4955 91.7548 15.7473 93.2338 15.6667 95.2242C14.8931 114.329 20.3191 133.209 31.186 149.019C42.0529 164.829 57.7355 176.66 75.8489 182.783C77.736 183.421 79.7431 182.319 80.3037 180.407V180.407C80.8644 178.495 79.7661 176.499 77.8812 175.854C61.3595 170.203 47.0578 159.376 37.1309 144.933C27.204 130.49 22.2196 113.259 22.8633 95.8091C22.9367 93.8185 21.4664 92.0778 19.4809 91.9163V91.9163Z" stroke="#50C3FF" stroke-width="30" stroke-linejoin="round" mask="url(#path-6-inside-3_659_139)"/>
<mask id="path-7-outside-4_659_139" maskUnits="userSpaceOnUse" x="17.1987" y="0" width="170" height="62" fill="black">
<rect fill="white" x="17.1987" width="170" height="62"/>
<path d="M181.158 50.9087C182.96 49.8047 183.533 47.4438 182.356 45.6883C173.808 32.9318 162.253 22.4455 148.687 15.1687C133.995 7.28822 117.473 3.4552 100.812 4.06239C84.1511 4.66958 67.9513 9.69514 53.8721 18.6242C40.8716 26.8692 30.1109 38.1687 22.5138 51.5136C21.4683 53.3501 22.2109 55.663 24.0884 56.633V56.633C25.966 57.6029 28.2669 56.8622 29.3191 55.0295C36.2889 42.8883 46.1162 32.6052 57.9709 25.0869C70.9042 16.8846 85.7857 12.268 101.091 11.7102C116.395 11.1524 131.573 14.6735 145.07 21.9127C157.44 28.5481 167.99 38.0886 175.825 49.6902C177.008 51.4415 179.356 52.0127 181.158 50.9087V50.9087Z"/>
</mask>
<path d="M181.158 50.9087C182.96 49.8047 183.533 47.4438 182.356 45.6883C173.808 32.9318 162.253 22.4455 148.687 15.1687C133.995 7.28822 117.473 3.4552 100.812 4.06239C84.1511 4.66958 67.9513 9.69514 53.8721 18.6242C40.8716 26.8692 30.1109 38.1687 22.5138 51.5136C21.4683 53.3501 22.2109 55.663 24.0884 56.633V56.633C25.966 57.6029 28.2669 56.8622 29.3191 55.0295C36.2889 42.8883 46.1162 32.6052 57.9709 25.0869C70.9042 16.8846 85.7857 12.268 101.091 11.7102C116.395 11.1524 131.573 14.6735 145.07 21.9127C157.44 28.5481 167.99 38.0886 175.825 49.6902C177.008 51.4415 179.356 52.0127 181.158 50.9087V50.9087Z" stroke="white" stroke-width="8" stroke-linejoin="round" mask="url(#path-7-outside-4_659_139)"/>
<mask id="path-8-outside-5_659_139" maskUnits="userSpaceOnUse" x="111.199" y="82" width="92" height="113" fill="black">
<rect fill="white" x="111.199" y="82" width="92" height="113"/>
<path d="M115.33 187.565C115.59 189.662 117.503 191.159 119.588 190.815C130.492 189.01 141.003 185.296 150.634 179.833C161.376 173.74 170.812 165.591 178.404 155.851C185.996 146.111 191.595 134.972 194.882 123.068C197.83 112.395 198.866 101.295 197.954 90.2799C197.78 88.1738 195.861 86.6845 193.764 86.9444V86.9444C191.666 87.2043 190.186 89.1149 190.352 91.2216C191.145 101.238 190.185 111.327 187.506 121.031C184.486 131.966 179.342 142.199 172.368 151.146C165.394 160.093 156.726 167.579 146.858 173.176C138.102 178.144 128.553 181.537 118.646 183.213C116.562 183.565 115.07 185.468 115.33 187.565V187.565Z"/>
</mask>
<path d="M115.33 187.565C115.59 189.662 117.503 191.159 119.588 190.815C130.492 189.01 141.003 185.296 150.634 179.833C161.376 173.74 170.812 165.591 178.404 155.851C185.996 146.111 191.595 134.972 194.882 123.068C197.83 112.395 198.866 101.295 197.954 90.2799C197.78 88.1738 195.861 86.6845 193.764 86.9444V86.9444C191.666 87.2043 190.186 89.1149 190.352 91.2216C191.145 101.238 190.185 111.327 187.506 121.031C184.486 131.966 179.342 142.199 172.368 151.146C165.394 160.093 156.726 167.579 146.858 173.176C138.102 178.144 128.553 181.537 118.646 183.213C116.562 183.565 115.07 185.468 115.33 187.565V187.565Z" stroke="white" stroke-width="8" stroke-linejoin="round" mask="url(#path-8-outside-5_659_139)"/>
<mask id="path-9-outside-6_659_139" maskUnits="userSpaceOnUse" x="6.19873" y="89" width="75" height="102" fill="black">
<rect fill="white" x="6.19873" y="89" width="75" height="102"/>
<path d="M14.1287 93.718C12.0178 93.6167 10.2164 95.2463 10.2011 97.3595C10.0614 116.687 15.8828 135.624 26.9198 151.566C37.9568 167.508 53.6327 179.622 71.7724 186.295C73.7558 187.024 75.9151 185.912 76.5634 183.9V183.9C77.2117 181.889 76.1029 179.741 74.1222 179.004C57.5825 172.853 43.2914 161.769 33.2119 147.21C23.1324 132.651 17.7882 115.373 17.8521 97.7263C17.8598 95.613 16.2395 93.8192 14.1287 93.718V93.718Z"/>
</mask>
<path d="M14.1287 93.718C12.0178 93.6167 10.2164 95.2463 10.2011 97.3595C10.0614 116.687 15.8828 135.624 26.9198 151.566C37.9568 167.508 53.6327 179.622 71.7724 186.295C73.7558 187.024 75.9151 185.912 76.5634 183.9V183.9C77.2117 181.889 76.1029 179.741 74.1222 179.004C57.5825 172.853 43.2914 161.769 33.2119 147.21C23.1324 132.651 17.7882 115.373 17.8521 97.7263C17.8598 95.613 16.2395 93.8192 14.1287 93.718V93.718Z" stroke="white" stroke-width="8" stroke-linejoin="round" mask="url(#path-9-outside-6_659_139)"/>
<path d="M177.939 62.43L187.775 68.8921C190.072 70.4012 193.133 68.7953 193.196 66.0477L193.465 54.413C193.543 51.008 189.957 48.7533 186.923 50.2997L178.367 54.6596C175.29 56.2276 175.053 60.5338 177.939 62.43Z" stroke="#50C3FF" stroke-width="5"/>
<path d="M173.34 59.7751L188.838 69.5785C190.595 70.6896 192.895 69.4825 192.979 67.4057L193.72 49.082C193.804 47.0052 191.608 45.6163 189.768 46.582L173.529 55.1024C171.688 56.0681 171.583 58.664 173.34 59.7751Z" stroke="white" stroke-width="5"/>
<path d="M105.25 179.704L95.8402 186.986C94.005 188.407 94.408 191.283 96.5627 192.145L107.487 196.511C110.321 197.644 113.328 195.315 112.94 192.288L111.666 182.359C111.272 179.291 107.696 177.812 105.25 179.704Z" stroke="#50C3FF" stroke-width="4"/>
<path d="M109.412 176.684L94.9551 187.967C93.62 189.009 93.9136 191.106 95.4836 191.741L112.484 198.619C114.054 199.254 115.722 197.952 115.487 196.275L112.944 178.113C112.709 176.436 110.747 175.642 109.412 176.684Z" stroke="white" stroke-width="4"/>
<path d="M24.5604 87.1151L20.7611 76.1758C19.9961 73.9732 17.1207 73.4471 15.6253 75.2361L8.28137 84.0221C6.32935 86.3573 7.59709 89.9305 10.5845 90.5134L20.0159 92.3534C23.044 92.9442 25.5727 90.0295 24.5604 87.1151Z" stroke="#50C3FF" stroke-width="4"/>
<path d="M26.5179 92.0668L20.3575 74.7937C19.7886 73.1986 17.7062 72.8175 16.6093 74.1077L4.73058 88.0793C3.63359 89.3696 4.34472 91.3635 6.01062 91.6684L24.0497 94.9699C25.7156 95.2747 27.0868 93.6619 26.5179 92.0668Z" stroke="white" stroke-width="4"/>
</svg>
