<svg width="198" height="201" viewBox="0 0 198 201" fill="none" xmlns="http://www.w3.org/2000/svg">
<path d="M24.5896 95.6726L16.8027 69.8529" stroke="white" stroke-width="4" stroke-linecap="round" stroke-linejoin="round"/>
<path d="M174.666 95.9259L181.557 69.8529" stroke="white" stroke-width="4" stroke-linecap="round" stroke-linejoin="round"/>
<path d="M32.3933 39.8682L76.6392 19.0332" stroke="white" stroke-width="4" stroke-linecap="round" stroke-linejoin="round"/>
<path d="M164.408 39.5L121.779 19.0332" stroke="white" stroke-width="4" stroke-linecap="round" stroke-linejoin="round"/>
<path fill-rule="evenodd" clip-rule="evenodd" d="M45.506 77.444L56.6641 58.7977C58.3476 55.9844 62.2661 55.5339 65.0206 57.312C73.7633 62.9558 85.8424 64.2282 85.2725 43.589C85.1901 40.6048 87.4774 38 90.4627 38H109.374C112.394 38 114.699 40.6631 114.726 43.6828C114.823 54.6666 119.583 66.8118 137.918 57.4739C140.515 56.1513 143.771 56.9951 145.126 59.5751L154.321 77.0778C155.66 79.626 154.552 82.7497 152.134 84.3113C143.533 89.8657 136.27 100.027 152.474 111.231C154.772 112.82 155.63 115.892 154.215 118.301L143.799 136.036C142.255 138.666 138.744 139.282 136.099 137.764C127.214 132.665 115.429 131.127 114.317 151.113C114.161 153.925 111.934 156.255 109.118 156.255H89.968C86.8336 156.255 84.4931 153.398 84.6509 150.267C85.2067 139.241 81.3661 127.217 63.3002 136.634C60.7965 137.94 57.6453 137.211 56.2107 134.779L45.893 117.29C44.3297 114.64 45.5352 111.242 48.1586 109.635C56.3311 104.628 62.7158 95.4881 47.1651 84.4992C44.8945 82.8947 44.0783 79.8297 45.506 77.444ZM98.6307 112.25C108.892 112.25 117.211 103.932 117.211 93.6706C117.211 83.4092 108.892 75.0908 98.6307 75.0908C88.3693 75.0908 80.0508 83.4092 80.0508 93.6706C80.0508 103.932 88.3693 112.25 98.6307 112.25Z" fill="url(#paint0_linear_659_26)"/>
<path fill-rule="evenodd" clip-rule="evenodd" d="M115.943 97.8006C116.268 96.5105 116.44 95.1598 116.44 93.7688C116.44 84.6754 109.069 77.3038 99.9753 77.3038C90.8819 77.3038 83.5103 84.6754 83.5103 93.7688C83.5103 95.1598 83.6827 96.5105 84.0075 97.8006C85.8057 90.6563 92.2729 85.3673 99.9753 85.3673C107.678 85.3673 114.145 90.6563 115.943 97.8006Z" fill="#105BA3"/>
<path fill-rule="evenodd" clip-rule="evenodd" d="M52.0203 77.9427L61.2083 62.9727C62.8975 60.2205 66.7417 59.7843 69.5143 61.4399C77.1266 65.9853 87.1984 66.6993 87.0253 49.9896C86.9943 46.9987 89.2708 44.3649 92.2619 44.3649H107.808C110.835 44.3649 113.133 47.0441 113.233 50.0689C113.538 59.287 117.891 68.9476 133.384 61.4886C135.971 60.2431 139.176 61.0586 140.538 63.5861L148.076 77.5758C149.46 80.1445 148.329 83.3186 145.897 84.9321C138.628 89.7564 132.934 98.1848 146.21 107.487C148.533 109.114 149.427 112.247 147.963 114.677L139.394 128.903C137.845 131.474 134.404 132.072 131.758 130.652C124.024 126.502 114.104 125.528 112.899 141.794C112.691 144.604 110.475 146.955 107.657 146.955H91.8823C88.7383 146.955 86.4039 144.077 86.4898 140.934C86.7424 131.699 83.1418 122.181 67.9005 129.712C65.4089 130.944 62.3115 130.241 60.8728 127.863L52.417 113.888C50.8036 111.221 52.0326 107.771 54.66 106.095C61.4894 101.738 66.3622 94.1719 53.6924 85.1179C51.395 83.4761 50.5432 80.3494 52.0203 77.9427ZM99.9801 110.224C109.073 110.224 116.445 102.852 116.445 93.7589C116.445 84.6655 109.073 77.2938 99.9801 77.2938C90.8867 77.2938 83.515 84.6655 83.515 93.7589C83.515 102.852 90.8867 110.224 99.9801 110.224Z" fill="white"/>
<path fill-rule="evenodd" clip-rule="evenodd" d="M51.8537 78.227C50.6139 80.5891 51.4872 83.5331 53.6924 85.109C59.8677 89.522 61.8755 93.5815 61.5206 97.0882C63.8173 92.3948 62.6773 86.309 53.4007 79.8342C52.7723 79.3956 52.2502 78.8451 51.8537 78.227ZM54.6397 106.099C52.0263 107.78 50.8078 111.22 52.417 113.879L60.8728 127.854C62.3115 130.232 65.4089 130.935 67.9005 129.704C83.1418 122.172 86.7424 131.69 86.4898 140.925C86.4039 144.068 88.7383 146.946 91.8823 146.946H107.657C110.475 146.946 112.691 144.595 112.899 141.785C114.104 125.519 124.024 126.494 131.758 130.643C134.404 132.063 137.845 131.465 139.394 128.894L147.963 114.668C149.051 112.862 148.836 110.667 147.7 108.991C147.571 109.251 147.417 109.504 147.237 109.747L139.533 120.144C137.858 122.403 134.665 122.798 132.209 121.426C124.415 117.073 114.126 115.735 112.897 132.32C112.689 135.13 110.473 137.481 107.655 137.481H91.8805C88.7364 137.481 86.402 134.603 86.488 131.46C86.7416 122.188 83.1104 112.629 67.7112 120.332C65.297 121.539 62.299 120.92 60.808 118.669L55.297 110.352C54.4396 109.058 54.2843 107.542 54.6397 106.099ZM138.599 93.4638C136.888 87.7545 141.234 82.8691 146.195 79.6617C146.994 79.1455 147.656 78.4611 148.136 77.6825C149.426 80.2302 148.292 83.3339 145.897 84.9233C142.598 87.1128 139.623 90.0448 138.599 93.4638Z" fill="#50C3FF"/>
<path d="M195.089 159.557V161.77C195.089 168.95 189.268 174.77 182.089 174.77H162.908C155.729 174.77 149.908 168.95 149.908 161.77V159.557C149.908 147.081 160.022 136.967 172.498 136.967C184.975 136.967 195.089 147.081 195.089 159.557Z" stroke="#105BA3" stroke-width="4"/>
<path fill-rule="evenodd" clip-rule="evenodd" d="M182.851 139.067C187.018 135.925 189.712 130.934 189.712 125.313C189.712 115.806 182.006 108.1 172.499 108.1C162.993 108.1 155.286 115.806 155.286 125.313C155.286 130.934 157.98 135.925 162.148 139.067C153.739 142.974 147.909 151.495 147.909 161.378V163.591C147.909 171.876 154.625 178.591 162.909 178.591H182.089C190.374 178.591 197.089 171.876 197.089 163.591V161.378C197.089 151.495 191.259 142.974 182.851 139.067Z" fill="url(#paint1_linear_659_26)"/>
<circle cx="172.634" cy="118.541" r="12" stroke="#105BA3" stroke-width="4"/>
<path fill-rule="evenodd" clip-rule="evenodd" d="M185.712 118.213C185.712 125.511 179.797 131.426 172.499 131.426C165.202 131.426 159.286 125.511 159.286 118.213C159.286 110.916 165.202 105 172.499 105C179.797 105 185.712 110.916 185.712 118.213ZM180.79 133.301C186.109 130.373 189.712 124.714 189.712 118.213C189.712 108.707 182.006 101 172.499 101C162.993 101 155.286 108.707 155.286 118.213C155.286 124.714 158.89 130.373 164.209 133.302C154.708 136.704 147.91 145.788 147.91 156.459V158.672C147.91 166.957 154.626 173.672 162.91 173.672H182.091C190.375 173.672 197.091 166.957 197.091 158.672V156.459C197.091 145.787 190.293 136.703 180.79 133.301ZM193.091 156.459V158.672C193.091 164.748 188.166 169.672 182.091 169.672H162.91C156.835 169.672 151.91 164.748 151.91 158.672V156.459C151.91 145.088 161.129 135.869 172.501 135.869C183.872 135.869 193.091 145.088 193.091 156.459Z" fill="white"/>
<path fill-rule="evenodd" clip-rule="evenodd" d="M147.912 156.574V158.672C147.912 166.956 154.627 173.672 162.912 173.672H182.092C190.376 173.672 197.092 166.956 197.092 158.672V156.574C197.092 164.858 190.376 171.574 182.092 171.574H162.912C154.627 171.574 147.912 164.859 147.912 156.574Z" fill="#50C3FF"/>
<path d="M48.362 160.016V162.229C48.362 169.409 42.5417 175.229 35.362 175.229H16.1817C9.00195 175.229 3.18164 169.409 3.18164 162.229V160.016C3.18164 147.54 13.2956 137.426 25.7718 137.426C38.248 137.426 48.362 147.54 48.362 160.016Z" stroke="#105BA3" stroke-width="4"/>
<path fill-rule="evenodd" clip-rule="evenodd" d="M36.1242 139.526C40.2916 136.384 42.9857 131.393 42.9857 125.772C42.9857 116.265 35.2792 108.559 25.7726 108.559C16.2661 108.559 8.55951 116.265 8.55951 125.772C8.55951 131.393 11.2537 136.384 15.421 139.526C7.01255 143.433 1.18246 151.954 1.18246 161.837V164.05C1.18246 172.335 7.8982 179.05 16.1825 179.05H35.3628C43.6471 179.05 50.3628 172.335 50.3628 164.05V161.837C50.3628 151.954 44.5327 143.433 36.1242 139.526Z" fill="url(#paint2_linear_659_26)"/>
<circle cx="25.9072" cy="119" r="12" stroke="#105BA3" stroke-width="4"/>
<path fill-rule="evenodd" clip-rule="evenodd" d="M38.9858 118.672C38.9858 125.97 33.0701 131.885 25.7727 131.885C18.4753 131.885 12.5596 125.97 12.5596 118.672C12.5596 111.375 18.4753 105.459 25.7727 105.459C33.0701 105.459 38.9858 111.375 38.9858 118.672ZM34.0638 133.76C39.3823 130.832 42.9858 125.173 42.9858 118.672C42.9858 109.166 35.2792 101.459 25.7727 101.459C16.2661 101.459 8.55957 109.166 8.55957 118.672C8.55957 125.173 12.1636 130.832 17.4826 133.761C7.9814 137.163 1.18393 146.247 1.18393 156.918V159.131C1.18393 167.416 7.89967 174.131 16.1839 174.131H35.3643C43.6485 174.131 50.3643 167.416 50.3643 159.131V156.918C50.3643 146.246 43.566 137.162 34.0638 133.76ZM46.3643 156.918V159.131C46.3643 165.207 41.4394 170.131 35.3643 170.131H16.1839C10.1088 170.131 5.18393 165.207 5.18393 159.131V156.918C5.18393 145.547 14.4025 136.328 25.7741 136.328C37.1457 136.328 46.3643 145.547 46.3643 156.918Z" fill="white"/>
<path fill-rule="evenodd" clip-rule="evenodd" d="M1.18506 157.033V159.131C1.18506 167.415 7.9008 174.131 16.1851 174.131H35.3654C43.6497 174.131 50.3654 167.415 50.3654 159.131V157.033C50.3654 165.317 43.6497 172.033 35.3654 172.033H16.1851C7.9008 172.033 1.18506 165.317 1.18506 157.033Z" fill="#50C3FF"/>
<circle cx="99.1798" cy="96.0824" r="18.4508" stroke="#0E62B1" stroke-width="9"/>
<circle cx="13.9082" cy="48.9998" r="9" stroke="#0F599F" stroke-width="4"/>
<path fill-rule="evenodd" clip-rule="evenodd" d="M23.8687 48.5397C23.8687 54.0263 19.4209 58.4741 13.9342 58.4741C8.44759 58.4741 3.9998 54.0263 3.9998 48.5397C3.9998 43.053 8.44759 38.6052 13.9342 38.6052C19.4209 38.6052 23.8687 43.053 23.8687 48.5397ZM27.8687 48.5397C27.8687 56.2354 21.63 62.4741 13.9342 62.4741C6.23845 62.4741 -0.000200272 56.2354 -0.000200272 48.5397C-0.000200272 40.8439 6.23845 34.6052 13.9342 34.6052C21.63 34.6052 27.8687 40.8439 27.8687 48.5397Z" fill="white"/>
<path fill-rule="evenodd" clip-rule="evenodd" d="M27.8158 47.312C27.1934 54.4319 21.2164 60.0169 13.9349 60.0169C6.65345 60.0169 0.676437 54.4319 0.0539866 47.312C0.0185697 47.7171 0.000488281 48.1272 0.000488281 48.5415C0.000488281 56.2372 6.23914 62.4759 13.9349 62.4759C21.6307 62.4759 27.8693 56.2372 27.8693 48.5415C27.8693 48.1271 27.8513 47.7171 27.8158 47.312Z" fill="#50C3FF"/>
<circle cx="182.908" cy="49" r="9" stroke="#0F599F" stroke-width="4"/>
<path fill-rule="evenodd" clip-rule="evenodd" d="M192.869 48.5399C192.869 54.0265 188.421 58.4743 182.934 58.4743C177.448 58.4743 173 54.0265 173 48.5399C173 43.0533 177.448 38.6055 182.934 38.6055C188.421 38.6055 192.869 43.0533 192.869 48.5399ZM196.869 48.5399C196.869 56.2357 190.63 62.4743 182.934 62.4743C175.238 62.4743 169 56.2357 169 48.5399C169 40.8441 175.238 34.6055 182.934 34.6055C190.63 34.6055 196.869 40.8441 196.869 48.5399Z" fill="white"/>
<path fill-rule="evenodd" clip-rule="evenodd" d="M196.816 47.3122C196.193 54.4321 190.216 60.0171 182.935 60.0171C175.653 60.0171 169.676 54.4321 169.054 47.3122C169.019 47.7173 169 48.1274 169 48.5417C169 56.2375 175.239 62.4761 182.935 62.4761C190.631 62.4761 196.869 56.2375 196.869 48.5417C196.869 48.1274 196.851 47.7173 196.816 47.3122Z" fill="#50C3FF"/>
<circle cx="98.8164" cy="14.3945" r="9" stroke="#0F599F" stroke-width="4"/>
<path fill-rule="evenodd" clip-rule="evenodd" d="M108.777 13.9344C108.777 19.4211 104.329 23.8689 98.8424 23.8689C93.3558 23.8689 88.908 19.4211 88.908 13.9344C88.908 8.44779 93.3558 4 98.8424 4C104.329 4 108.777 8.44779 108.777 13.9344ZM112.777 13.9344C112.777 21.6302 106.538 27.8689 98.8424 27.8689C91.1467 27.8689 84.908 21.6302 84.908 13.9344C84.908 6.23866 91.1467 0 98.8424 0C106.538 0 112.777 6.23866 112.777 13.9344Z" fill="white"/>
<path fill-rule="evenodd" clip-rule="evenodd" d="M112.724 12.7067C112.102 19.8266 106.125 25.4116 98.8431 25.4116C91.5617 25.4116 85.5846 19.8266 84.9622 12.7067C84.9268 13.1118 84.9087 13.5219 84.9087 13.9362C84.9087 21.632 91.1473 27.8707 98.8431 27.8707C106.539 27.8707 112.778 21.632 112.778 13.9362C112.778 13.5219 112.759 13.1118 112.724 12.7067Z" fill="#50C3FF"/>
<path d="M55.9893 161.788L55.3928 183.621C55.1557 192.3 63.3301 198.768 71.722 196.541L98.4236 189.456L104.098 191.099L126.448 196.723C134.908 198.852 143.022 192.209 142.606 183.495L141.667 163.856C141.09 151.8 138.729 139.193 129.377 131.562C121.943 125.496 111.429 120.51 98.4236 120.676C84.5369 120.853 73.8585 126.565 66.5216 133.082C58.5629 140.151 56.2801 151.147 55.9893 161.788Z" fill="#115CA3"/>
<path d="M55.9894 151.952L55.3928 173.785C55.1557 182.464 63.3301 188.932 71.722 186.705L98.4236 179.62L104.098 181.263L126.448 186.888C134.908 189.016 143.022 182.373 142.606 173.66L141.667 154.021C141.09 141.964 138.729 129.358 129.378 121.727C125.273 118.377 120.228 115.356 114.344 113.351C111.066 116.166 105.004 118.956 99.1803 119.03C94.0793 119.095 87.7049 116.526 84.0163 113.298C76.8274 115.549 71.0049 119.221 66.4881 123.22C58.5181 130.277 56.2801 141.312 55.9894 151.952Z" fill="white"/>
<path fill-rule="evenodd" clip-rule="evenodd" d="M55.5487 168.029C56.7273 175.435 64.1351 180.526 71.7205 178.514L98.4221 171.429L104.097 173.072L126.446 178.696C133.83 180.554 140.95 175.73 142.366 168.679L142.604 173.665C143.021 182.378 134.906 189.021 126.446 186.893L104.097 181.269L98.4221 179.625L71.7205 186.71C63.3286 188.937 55.1541 182.469 55.3913 173.79L55.5487 168.029Z" fill="#50C3FF"/>
<path d="M70.9025 155.92C69.1265 152.095 75.9845 144.608 117.624 145.264L70.9025 155.92Z" fill="#50C3FF" fill-opacity="0.23"/>
<path d="M70.4917 182.147L112.951 167.881C118.747 165.934 125.234 163.178 126.515 157.2C127.159 154.199 126.463 151.055 123.127 148.736C119.195 146.003 113.98 146.702 109.343 147.895L73.3606 157.147" stroke="#50C3FF" stroke-width="7" stroke-linecap="round" stroke-linejoin="round"/>
<defs>
<linearGradient id="paint0_linear_659_26" x1="99.9756" y1="38" x2="99.9756" y2="153.331" gradientUnits="userSpaceOnUse">
<stop stop-color="#4AA3F6"/>
<stop offset="0.846228" stop-color="#0F5FAA"/>
</linearGradient>
<linearGradient id="paint1_linear_659_26" x1="172.499" y1="108.1" x2="172.499" y2="177.772" gradientUnits="userSpaceOnUse">
<stop offset="0.820353" stop-color="#0F5FAA" stop-opacity="0"/>
<stop offset="0.883124" stop-color="#0F5FAA"/>
<stop offset="1" stop-color="#0D65B6"/>
</linearGradient>
<linearGradient id="paint2_linear_659_26" x1="25.7726" y1="108.559" x2="25.7726" y2="178.231" gradientUnits="userSpaceOnUse">
<stop offset="0.820353" stop-color="#0F5FAA" stop-opacity="0"/>
<stop offset="0.883124" stop-color="#0F5FAA"/>
<stop offset="1" stop-color="#0D65B6"/>
</linearGradient>
</defs>
</svg>
